<?xml version="1.0" encoding="UTF-8" standalone="no"?>
<!DOCTYPE svg PUBLIC "-//W3C//DTD SVG 1.1//EN" "http://www.w3.org/Graphics/SVG/1.1/DTD/svg11.dtd">
<svg width="100%" height="100%" viewBox="0 0 286 99" version="1.1" xmlns="http://www.w3.org/2000/svg" xmlns:xlink="http://www.w3.org/1999/xlink" xml:space="preserve" xmlns:serif="http://www.serif.com/" style="fill-rule:evenodd;clip-rule:evenodd;stroke-linejoin:round;stroke-miterlimit:1.41421;">
    <rect id="icinga-logo-big-dark" x="0" y="0" width="286" height="99" style="fill:none;"/>
    <clipPath id="_clip1">
        <rect id="icinga-logo-big-dark1" serif:id="icinga-logo-big-dark" x="0" y="0" width="286" height="99"/>
    </clipPath>
    <g clip-path="url(#_clip1)">
        <g>
            <path id="Mask" d="M78.018,47.989C77.199,48.807 76.791,49.804 76.791,50.979L76.791,93.158C76.791,94.336 77.213,95.332 78.057,96.15C78.901,96.968 79.884,97.377 81.01,97.377C82.186,97.377 83.182,96.968 84,96.15C84.818,95.332 85.227,94.336 85.227,93.158L85.227,50.979C85.227,49.804 84.806,48.807 83.962,47.989C83.118,47.171 82.133,46.762 81.01,46.762C79.833,46.762 78.835,47.171 78.018,47.989ZM102.215,59.76C102.751,58.508 103.491,57.421 104.439,56.501C105.384,55.58 106.484,54.853 107.736,54.316C108.987,53.779 110.33,53.51 111.762,53.51C113.96,53.51 115.916,54.123 117.629,55.351C119.341,56.577 120.582,58.138 121.348,60.03C122.165,61.716 123.444,62.56 125.183,62.56C126.512,62.56 127.534,62.125 128.25,61.257C128.966,60.387 129.323,59.442 129.323,58.418C129.323,58.112 129.286,57.755 129.209,57.345C129.132,56.937 128.991,56.553 128.787,56.195C128.071,54.559 127.139,53.063 125.987,51.708C124.838,50.355 123.521,49.178 122.039,48.18C120.555,47.183 118.944,46.417 117.207,45.88C115.469,45.343 113.653,45.074 111.762,45.074C109.155,45.074 106.713,45.561 104.439,46.531C102.162,47.503 100.183,48.832 98.494,50.52C96.808,52.206 95.478,54.189 94.507,56.462C93.535,58.739 93.05,61.155 93.05,63.709L93.05,80.352C93.05,82.909 93.548,85.312 94.545,87.56C95.543,89.811 96.885,91.779 98.571,93.465C100.259,95.153 102.238,96.495 104.515,97.492C106.789,98.489 109.205,98.987 111.762,98.987C113.756,98.987 115.647,98.706 117.438,98.143C119.226,97.58 120.861,96.777 122.345,95.728C123.828,94.68 125.144,93.442 126.295,92.009C127.445,90.578 128.353,88.991 129.018,87.253C129.221,86.794 129.323,86.257 129.323,85.643C129.323,84.621 128.953,83.676 128.211,82.806C127.47,81.937 126.46,81.502 125.183,81.502C124.517,81.502 123.814,81.732 123.074,82.192C122.332,82.653 121.782,83.24 121.426,83.955C120.607,85.849 119.341,87.42 117.629,88.672C115.916,89.926 113.96,90.551 111.762,90.551C110.382,90.551 109.066,90.282 107.814,89.746C106.559,89.209 105.461,88.481 104.515,87.56C103.568,86.641 102.815,85.555 102.253,84.301C101.69,83.049 101.41,81.732 101.41,80.352L101.41,63.709C101.41,62.329 101.678,61.014 102.215,59.76M141.672,46.762C140.494,46.762 139.496,47.171 138.68,47.989C137.861,48.807 137.453,49.804 137.453,50.979L137.453,93.158C137.453,94.336 137.874,95.332 138.718,96.15C139.562,96.968 140.546,97.377 141.672,97.377C142.846,97.377 143.843,96.968 144.661,96.15C145.479,95.332 145.888,94.336 145.888,93.158L145.888,50.979C145.888,49.804 145.467,48.807 144.623,47.989C143.779,47.171 142.795,46.762 141.672,46.762M185.536,50.673C183.849,48.986 181.867,47.643 179.593,46.646C177.317,45.65 174.901,45.151 172.346,45.151C169.788,45.151 167.373,45.65 165.099,46.646C162.822,47.643 160.842,48.986 159.154,50.673C157.468,52.36 156.138,54.328 155.166,56.577C154.195,58.827 153.71,61.231 153.71,63.787L153.71,93.158C153.71,94.336 154.119,95.332 154.937,96.15C155.754,96.968 156.752,97.377 157.927,97.377C159.103,97.377 160.087,96.968 160.881,96.15C161.672,95.332 162.068,94.336 162.068,93.158L162.068,63.787C162.068,62.405 162.338,61.09 162.875,59.837C163.412,58.585 164.14,57.497 165.06,56.577C165.98,55.657 167.066,54.928 168.319,54.392C169.571,53.855 170.913,53.587 172.346,53.587C173.776,53.587 175.118,53.855 176.372,54.392C177.624,54.928 178.723,55.657 179.67,56.577C180.615,57.497 181.356,58.585 181.893,59.837C182.431,61.09 182.698,62.405 182.698,63.787L182.698,93.158C182.698,94.336 183.121,95.332 183.965,96.15C184.807,96.968 185.792,97.377 186.917,97.377C188.092,97.377 189.076,96.968 189.869,96.15C190.661,95.332 191.057,94.336 191.057,93.158L191.057,63.787C191.057,61.231 190.559,58.827 189.562,56.577C188.565,54.328 187.223,52.36 185.536,50.673M232.623,69.922L224.264,69.922C223.089,69.922 222.103,70.332 221.311,71.149C220.519,71.968 220.123,72.939 220.123,74.064C220.123,75.239 220.519,76.237 221.311,77.054C222.103,77.872 223.089,78.281 224.264,78.281L228.405,78.281L228.405,80.352C228.405,81.732 228.137,83.049 227.601,84.301C227.063,85.555 226.335,86.641 225.415,87.56C224.494,88.481 223.408,89.209 222.156,89.746C220.901,90.282 219.56,90.551 218.129,90.551C216.749,90.551 215.432,90.282 214.18,89.746C212.926,89.209 211.827,88.481 210.882,87.56C209.936,86.641 209.195,85.555 208.658,84.301C208.121,83.049 207.852,81.732 207.852,80.352L207.852,63.787C207.852,62.405 208.121,61.09 208.658,59.837C209.195,58.585 209.924,57.497 210.844,56.577C211.765,55.657 212.85,54.928 214.103,54.392C215.355,53.855 216.697,53.587 218.129,53.587C220.326,53.587 222.282,54.201 223.996,55.428C225.709,56.654 226.974,58.24 227.792,60.182C228.148,61.001 228.685,61.614 229.403,62.023C230.118,62.433 230.834,62.637 231.55,62.637C232.879,62.637 233.901,62.202 234.617,61.332C235.333,60.464 235.69,59.519 235.69,58.496C235.69,58.189 235.678,57.894 235.652,57.613C235.627,57.332 235.563,57.065 235.462,56.808C234.745,55.07 233.812,53.485 232.662,52.054C231.511,50.623 230.181,49.396 228.674,48.372C227.165,47.351 225.517,46.557 223.727,45.994C221.937,45.433 220.071,45.151 218.129,45.151C215.572,45.151 213.156,45.637 210.882,46.608C208.606,47.579 206.625,48.908 204.937,50.596C203.252,52.283 201.909,54.265 200.913,56.54C199.915,58.815 199.416,61.231 199.416,63.787L199.416,80.352C199.416,82.909 199.915,85.312 200.913,87.56C201.909,89.811 203.252,91.778 204.937,93.465C206.625,95.152 208.606,96.495 210.882,97.492C213.156,98.488 215.572,98.986 218.129,98.986C220.685,98.986 223.102,98.488 225.376,97.492C227.65,96.495 229.633,95.152 231.32,93.465C233.008,91.778 234.349,89.811 235.346,87.56C236.343,85.312 236.842,82.909 236.842,80.352L236.842,74.064C236.842,72.888 236.432,71.903 235.614,71.11C234.796,70.318 233.8,69.922 232.623,69.922" style="fill:rgb(51,41,49);fill-rule:nonzero;"/>
            <path d="M257.318,75.366C257.879,74.037 258.416,72.786 258.928,71.608C259.438,70.433 259.95,69.283 260.463,68.158C260.972,67.034 261.47,65.895 261.957,64.744C262.443,63.595 262.966,62.405 263.53,61.178L269.666,75.366L257.318,75.366ZM285.616,91.701L267.364,48.986C266.954,48.065 266.214,47.35 265.14,46.838C264.884,46.684 264.615,46.583 264.335,46.531C264.053,46.48 263.784,46.454 263.53,46.454C261.791,46.454 260.512,47.298 259.694,48.986L241.443,91.701C241.339,91.907 241.263,92.162 241.213,92.469C241.161,92.775 241.136,93.056 241.136,93.312C241.136,94.284 241.505,95.218 242.248,96.111C242.988,97.007 243.999,97.453 245.278,97.453C246.094,97.453 246.836,97.249 247.502,96.84C248.165,96.43 248.702,95.792 249.111,94.923C249.879,93.031 250.658,91.179 251.451,89.362C252.243,87.548 253.047,85.694 253.866,83.803L273.27,83.803L278.024,94.923C278.688,96.61 279.966,97.453 281.859,97.453C283.135,97.453 284.145,97.007 284.887,96.111C285.628,95.218 286,94.284 286,93.312C286,92.851 285.871,92.315 285.616,91.701ZM80.591,27.652C77.112,27.915 74.507,30.948 74.767,34.423C74.807,34.951 74.917,35.455 75.076,35.935L49.432,42.259C48.984,39.778 47.922,37.37 46.218,35.278C44.84,33.588 43.176,32.272 41.357,31.329L48.881,15.691C51.373,16.477 54.201,16.036 56.379,14.265C59.818,11.459 60.332,6.397 57.531,2.959C54.726,-0.48 49.662,-0.996 46.224,1.805C42.785,4.608 42.266,9.671 45.073,13.111C45.834,14.047 46.767,14.756 47.785,15.252L40.289,30.83C35.188,28.666 29.089,29.321 24.498,33.062C23.996,33.471 23.539,33.913 23.103,34.369L14.839,27.604C15.509,26.342 15.596,24.794 14.923,23.414C13.805,21.128 11.043,20.18 8.758,21.3C6.472,22.422 5.524,25.181 6.642,27.465C7.762,29.751 10.521,30.701 12.809,29.582C13.334,29.324 13.78,28.971 14.154,28.565L22.312,35.243C17.747,40.802 17.563,48.986 22.29,54.774C23.395,56.131 24.687,57.235 26.091,58.111L16.657,71.637C14.711,70.169 12.246,69.366 9.623,69.565C3.893,69.995 -0.402,74.987 0.03,80.712C0.459,86.443 5.452,90.736 11.181,90.305C16.909,89.875 21.201,84.881 20.771,79.154C20.57,76.476 19.364,74.121 17.56,72.405L27.113,58.707C31.657,61.075 37.195,61.055 41.792,58.478L47.17,67.462C46.447,67.974 45.932,68.769 45.823,69.717C45.616,71.493 46.888,73.099 48.665,73.305C50.439,73.507 52.043,72.237 52.251,70.46C52.455,68.687 51.185,67.081 49.408,66.876C49.005,66.829 48.614,66.868 48.244,66.962L42.804,57.874C43.213,57.601 43.615,57.31 44.005,56.993C48.186,53.582 50.109,48.429 49.595,43.434L75.559,37.031C76.722,39.104 79.009,40.435 81.536,40.245C85.014,39.987 87.621,36.954 87.359,33.478C87.097,30 84.066,27.393 80.591,27.652" style="fill:rgb(51,41,49);fill-rule:nonzero;"/>
        </g>
    </g>
</svg>
