<svg height="35" viewBox="0 0 100 35" width="100" xmlns="http://www.w3.org/2000/svg"><path d="m85.0767 33.7594c.671 0 1.288.081 1.905.268.616.188 1.179.456 1.689.804.51.349.992.778 1.394 1.234.403.483.724 1.019.966 1.582.08.134.134.268.16.402.027.134.027.268.027.376 0 .348-.134.697-.375.992-.242.295-.617.456-1.073.456-.616 0-1.046-.295-1.34-.885-.269-.671-.697-1.207-1.287-1.636-.617-.428-1.288-.643-2.066-.643-.509 0-.965.08-1.394.268-.456.187-.831.455-1.152.777-.349.322-.59.698-.778 1.127-.1566667.38-.2570833.7593056-.2862037 1.1546991l-.0087963.2393009v5.819c0 .482.107.938.295 1.367.188.456.456.832.804 1.153.322.322.697.563 1.153.751.429.187.885.295 1.367.295.778 0 1.449-.214 2.066-.67.59-.429 1.018-.966 1.313-1.636.134-.241.322-.456.59-.616.242-.162.483-.242.724-.242.456 0 .805.161 1.073.456.241.295.375.643.375.992 0 .1605-.0151875.306375-.0565312.4372031l-.0504688.1257969c-.241.617-.536 1.153-.938 1.663-.403.509-.885.938-1.395 1.287-.51.375-1.099.67-1.716.858-.617.187-1.287.295-1.985.295-.884 0-1.742-.188-2.52-.537-.804-.348-1.501-.804-2.091-1.394s-1.046-1.287-1.394-2.065c-.305375-.679875-.4874844-1.4217656-.5282402-2.1894961l-.0087598-.3305039v-5.819c0-.885.161-1.743.51-2.548.348-.777.804-1.474 1.394-2.064s1.287-1.046 2.092-1.394c.777-.349 1.635-.51 2.546-.51zm37.1914.027c.671 0 1.341.107 1.958.295s1.207.483 1.743.831c.51.349.992.777 1.395 1.287.402.51.723 1.046.965 1.663l.08.268v.322c0 .348-.134.697-.375.992-.242.295-.617.456-1.073.456-.241 0-.509-.081-.751-.215-.241-.134-.429-.348-.563-.644-.295-.67-.724-1.233-1.314-1.662-.616-.429-1.287-.643-2.065-.643-.509 0-.965.08-1.394.268-.456.187-.831.455-1.152.777-.322.322-.564.697-.751 1.126-.156667.3808333-.257083.7602778-.286204 1.1556944l-.008796.2393056v5.792c0 .482.107.938.295 1.367.187.456.429.832.777 1.153.322.322.697.563 1.153.751.429.187.885.295 1.367.295.51 0 .966-.108 1.422-.295.429-.188.805-.429 1.126-.751.322-.321.59-.697.778-1.153.155833-.3575.238056-.73375.261134-1.1281713l.006866-.2388287v-.724h-1.448c-.402 0-.751-.134-1.019-.429-.295-.295-.429-.644-.429-1.046s.134-.724.429-1.019c.2345-.258125.531016-.3929844.870789-.422666l.148211-.006334h2.923c.402 0 .75.134 1.045.402.258125.258125.392984.5575938.422666.8977363l.006334.1482637v2.199c0 .885-.161 1.743-.509 2.52-.348.778-.831 1.475-1.421 2.065s-1.287 1.046-2.065 1.394c-.804.349-1.662.537-2.548.537-.884 0-1.743-.188-2.52-.537-.804-.348-1.501-.804-2.091-1.394s-1.046-1.287-1.395-2.065c-.305375-.679875-.486719-1.4217656-.527283-2.1894961l-.008717-.3305039v-5.792c0-.885.187-1.743.536-2.548.349-.777.805-1.474 1.395-2.065.59-.59 1.287-1.045 2.091-1.393.777-.349 1.636-.51 2.52-.51zm15.8745.4566c.081 0 .188 0 .296.027.053333.018.118667.0355556.18.0612593l.087.0457407c.322286.1611429.565959.3612245.712758.6172478l.065242.1327522 6.382 14.936c.081.215.134.403.134.563 0 .349-.134.671-.375.966-.268.322-.617.483-1.073.483-.614167 0-1.025826-.2478819-1.275803-.7436458l-.064197-.1413542-1.663-3.888h-6.784c-.295.67-.563 1.313-.831 1.93-.295.644-.563 1.287-.832 1.958-.134.295-.321.536-.563.67-.241.134-.482.215-.777.215-.399 0-.716078-.1232656-.950564-.3697969l-.095436-.1132031c-.268-.295-.403-.617-.403-.966 0-.08 0-.188.027-.295l.027-.0985926.054-.1694074 6.382-14.936c.295-.589.724-.884 1.34-.884zm-63.8175.1067c.402 0 .75.134 1.046.429.25725.258125.3927656.5575938.422625.8977363l.006375.1482637v14.748c0 .402-.135.751-.429 1.046-.296.295-.644.429-1.046.429-.403 0-.725-.134-1.019-.429-.258125-.258125-.4136562-.5575937-.4485059-.8977363l-.0074941-.1482637v-14.748c0-.402.134-.751.429-1.046s.643-.429 1.046-.429zm21.21 0c.402 0 .751.134 1.046.429.25725.258125.3927656.5575938.422625.8977363l.006375.1482637v14.748c0 .402-.135.751-.429 1.046-.295.295-.644.429-1.046.429s-.724-.134-1.019-.429c-.258125-.258125-.4136562-.5575937-.4485059-.8977363l-.0074941-.1482637v-14.748c0-.402.134-.751.429-1.046s.644-.429 1.046-.429zm10.7255-.563c.885 0 1.743.161 2.547.51.778.348 1.475.831 2.065 1.421s1.073 1.287 1.421 2.064c.305375.68075.466813 1.42275.5024 2.1904941l.0076.3305059v10.27c0 .402-.135.751-.403 1.046-.295.295-.643.429-1.045.429-.403 0-.724-.134-1.019-.429-.258125-.258125-.413656-.5575937-.448506-.8977363l-.007494-.1482637v-10.27c0-.483-.081-.938-.268-1.394-.188-.429-.456-.804-.778-1.127-.348-.321-.724-.589-1.153-.777-.456-.188-.912-.268-1.421-.268-.51 0-.965.08-1.394.268-.456.188-.831.456-1.153.777-.322.323-.563.698-.751 1.127-.156667.38-.257083.7593056-.286204 1.1546991l-.008796.2393009v10.27c0 .402-.134.751-.402 1.046-.295.295-.644.429-1.046.429s-.751-.134-1.046-.429c-.258125-.258125-.3929844-.5575937-.422666-.8977363l-.006334-.1482637v-10.27c0-.885.161-1.743.51-2.521.348-.777.804-1.474 1.394-2.064s1.287-1.073 2.092-1.421c.777-.349 1.635-.51 2.52-.51zm-40.145-14.7524c.98 1.202.799 2.973-.403 3.954-.7135427.5800871-1.6269138.7527777-2.4563199.5464512l-2.6461727 5.4979481c.5779292.3227096 1.1058725.7577926 1.5497926 1.3018007.5578806.6851842.919745 1.4664392 1.0924916 2.2756424l8.9486237-2.2073659c-.0292334-.1184503-.0490052-.2409327-.0584153-.3666765-.092-1.215.819-2.275 2.036-2.367 1.215-.091 2.275.82 2.367 2.036.091 1.216-.82 2.276-2.037 2.367-.8211665.061503-1.5715316-.3346905-1.9997973-.9734027l-9.1509619 2.2572841c.1199705 1.6931832-.5575939 3.4169998-1.9719408 4.5715186-.0916538.0745282-.1850159.1455597-.279924.2131107l1.9393556 3.2387843c.0753599-.0066904.1525329-.005914.2306684.003005.621.072 1.065.634.994 1.254-.074.621-.634 1.066-1.254.995-.621-.072-1.066-.633-.994-1.255.0309663-.2704096.1551414-.5075304.3369336-.6830715l-1.8928981-3.1609715c-1.5260558.7939481-3.3251285.7992664-4.8352112.0718318l-3.3672948 4.8286847c.5634239.5877707.9336449 1.3674834.9987705 2.2425265.15 2.003-1.35 3.749-3.353 3.899-2.003.151-3.749-1.351-3.899-3.354-.151-2.002 1.351-3.747 3.354-3.897.8569941-.0654619 1.6669418.1722239 2.3248898.6224372l3.2886724-4.7148027c-.4356465-.2913976-.8358066-.6517899-1.1839622-1.0795345-1.6157836-1.9781784-1.5911265-4.7571267-.0989533-6.6962604l-2.8636784-2.3463302c-.1044197.0911892-.2224378.1702938-.3529683.2340906-.8.391-1.765.06-2.156-.74-.391-.798-.06-1.764.74-2.155.799-.391 1.764-.06 2.156.739.2078646.4258559.2111957.8991522.0478454 1.3075444l2.9271152 2.3991038c.1179203-.1155836.2421499-.22679.3726394-.3331482 1.5583374-1.2701564 3.6136103-1.5254897 5.3647177-.8471552l2.6265341-5.4562041c-.2974624-.1674645-.5690752-.392321-.7975518-.6728407-.982-1.203-.8-2.973.402-3.953s2.973-.799 3.954.403zm74.173 25.3177-2.146-4.961-.367037.8304444c-.05863.135-.115296.2688889-.168963.4025556l-1.072 2.414c-.094.201-.188.4155-.281875.63675l-.281125.67725z" fill="#7e8182" transform="translate(-46 -18)"/></svg>