<?xml version="1.0" encoding="UTF-8" standalone="no"?>
<!DOCTYPE svg PUBLIC "-//W3C//DTD SVG 1.1//EN" "http://www.w3.org/Graphics/SVG/1.1/DTD/svg11.dtd">
<svg width="100%" height="100%" viewBox="0 0 101 35" version="1.1" xmlns="http://www.w3.org/2000/svg" xmlns:xlink="http://www.w3.org/1999/xlink" xml:space="preserve" xmlns:serif="http://www.serif.com/" style="fill-rule:evenodd;clip-rule:evenodd;">
    <g transform="matrix(1,0,0,1,-327,0)">
        <g id="icinga-logo-dark" transform="matrix(1,0,0,1,327.107,0)">
            <rect x="0" y="0" width="100" height="35" style="fill:none;"/>
            <clipPath id="_clip1">
                <rect x="0" y="0" width="100" height="35"/>
            </clipPath>
            <g clip-path="url(#_clip1)">
                <g>
                    <path d="M26.85,32.573C26.85,32.975 27.011,33.324 27.306,33.619C27.6,33.914 27.922,34.048 28.325,34.048C28.727,34.048 29.075,33.914 29.371,33.619C29.665,33.324 29.8,32.975 29.8,32.573L29.8,17.825C29.8,17.423 29.665,17.074 29.371,16.779C29.075,16.484 28.727,16.35 28.325,16.35C27.922,16.35 27.574,16.484 27.279,16.779C26.984,17.074 26.85,17.423 26.85,17.825L26.85,32.573Z" style="fill:rgb(51,41,49);"/>
                    <g transform="matrix(1,0,0,1,32,15.61)">
                        <path d="M0.535,12.484C0.535,13.369 0.723,14.227 1.072,15.004C1.42,15.782 1.876,16.479 2.466,17.069C3.056,17.659 3.753,18.115 4.557,18.463C5.335,18.812 6.193,19 7.077,19C7.775,19 8.445,18.892 9.062,18.705C9.679,18.517 10.268,18.222 10.778,17.847C11.288,17.498 11.77,17.069 12.173,16.56C12.575,16.05 12.87,15.514 13.111,14.897C13.191,14.736 13.218,14.548 13.218,14.334C13.218,13.985 13.084,13.637 12.843,13.342C12.575,13.047 12.226,12.886 11.77,12.886C11.529,12.886 11.288,12.966 11.046,13.128C10.778,13.288 10.59,13.503 10.456,13.744C10.161,14.414 9.733,14.951 9.143,15.38C8.526,15.836 7.855,16.05 7.077,16.05C6.595,16.05 6.139,15.942 5.71,15.755C5.254,15.567 4.879,15.326 4.557,15.004C4.209,14.683 3.941,14.307 3.753,13.851C3.565,13.422 3.458,12.966 3.458,12.484L3.458,6.665C3.458,6.182 3.565,5.727 3.753,5.271C3.941,4.842 4.182,4.466 4.531,4.144C4.852,3.822 5.227,3.554 5.683,3.367C6.112,3.179 6.568,3.099 7.077,3.099C7.855,3.099 8.526,3.314 9.143,3.742C9.733,4.171 10.161,4.707 10.43,5.378C10.724,5.968 11.154,6.263 11.77,6.263C12.226,6.263 12.601,6.102 12.843,5.807C13.084,5.512 13.218,5.163 13.218,4.815C13.218,4.707 13.218,4.573 13.191,4.439C13.165,4.305 13.111,4.171 13.031,4.037C12.789,3.474 12.468,2.938 12.065,2.455C11.663,1.999 11.181,1.57 10.671,1.221C10.161,0.873 9.598,0.605 8.982,0.417C8.365,0.23 7.748,0.149 7.077,0.149C6.166,0.149 5.308,0.31 4.531,0.659C3.726,1.007 3.029,1.463 2.439,2.053C1.849,2.643 1.393,3.34 1.045,4.117C0.696,4.922 0.535,5.78 0.535,6.665L0.535,12.484Z" style="fill:rgb(51,41,49);"/>
                    </g>
                    <path d="M48.06,32.573C48.06,32.975 48.221,33.324 48.516,33.619C48.811,33.914 49.133,34.048 49.535,34.048C49.937,34.048 50.286,33.914 50.581,33.619C50.875,33.324 51.01,32.975 51.01,32.573L51.01,17.825C51.01,17.423 50.875,17.074 50.581,16.779C50.286,16.484 49.937,16.35 49.535,16.35C49.133,16.35 48.784,16.484 48.489,16.779C48.194,17.074 48.06,17.423 48.06,17.825L48.06,32.573ZM53.745,32.573C53.745,32.975 53.879,33.324 54.174,33.619C54.469,33.914 54.818,34.048 55.22,34.048C55.622,34.048 55.971,33.914 56.266,33.619C56.534,33.324 56.668,32.975 56.668,32.573L56.668,22.303C56.668,21.82 56.775,21.365 56.963,20.909C57.151,20.48 57.392,20.105 57.714,19.782C58.036,19.461 58.411,19.193 58.867,19.005C59.296,18.817 59.751,18.737 60.261,18.737C60.77,18.737 61.226,18.817 61.682,19.005C62.111,19.193 62.487,19.461 62.835,19.782C63.157,20.105 63.425,20.48 63.613,20.909C63.8,21.365 63.881,21.82 63.881,22.303L63.881,32.573C63.881,32.975 64.042,33.324 64.337,33.619C64.632,33.914 64.953,34.048 65.356,34.048C65.758,34.048 66.106,33.914 66.401,33.619C66.669,33.324 66.804,32.975 66.804,32.573L66.804,22.303C66.804,21.418 66.643,20.56 66.294,19.782C65.946,19.005 65.463,18.308 64.873,17.718C64.283,17.128 63.586,16.645 62.808,16.297C62.004,15.948 61.146,15.787 60.261,15.787C59.376,15.787 58.518,15.948 57.741,16.297C56.936,16.645 56.239,17.128 55.649,17.718C55.059,18.308 54.603,19.005 54.255,19.782C53.906,20.56 53.745,21.418 53.745,22.303L53.745,32.573Z" style="fill:rgb(51,41,49);"/>
                    <g transform="matrix(1,0,0,1,69,15.61)">
                        <path d="M0.726,12.484C0.726,13.369 0.913,14.227 1.262,15.004C1.611,15.782 2.067,16.479 2.657,17.069C3.247,17.659 3.944,18.115 4.748,18.463C5.525,18.812 6.384,19 7.268,19C8.154,19 9.012,18.812 9.816,18.463C10.594,18.115 11.291,17.659 11.881,17.069C12.471,16.479 12.954,15.782 13.302,15.004C13.65,14.227 13.811,13.369 13.811,12.484L13.811,10.285C13.811,9.883 13.677,9.534 13.382,9.239C13.087,8.971 12.739,8.837 12.337,8.837L9.414,8.837C9.012,8.837 8.663,8.971 8.395,9.266C8.1,9.561 7.966,9.883 7.966,10.285C7.966,10.687 8.1,11.036 8.395,11.331C8.663,11.626 9.012,11.76 9.414,11.76L10.862,11.76L10.862,12.484C10.862,12.966 10.781,13.422 10.594,13.851C10.406,14.307 10.138,14.683 9.816,15.004C9.495,15.326 9.119,15.567 8.69,15.755C8.234,15.942 7.778,16.05 7.268,16.05C6.786,16.05 6.33,15.942 5.901,15.755C5.445,15.567 5.07,15.326 4.748,15.004C4.4,14.683 4.158,14.307 3.971,13.851C3.783,13.422 3.676,12.966 3.676,12.484L3.676,6.692C3.676,6.209 3.783,5.754 3.971,5.297C4.158,4.868 4.4,4.493 4.722,4.171C5.043,3.849 5.418,3.581 5.874,3.394C6.303,3.206 6.759,3.126 7.268,3.126C8.046,3.126 8.717,3.34 9.333,3.769C9.923,4.198 10.352,4.761 10.647,5.431C10.781,5.727 10.969,5.941 11.21,6.075C11.452,6.209 11.72,6.29 11.961,6.29C12.417,6.29 12.792,6.129 13.034,5.834C13.275,5.539 13.409,5.19 13.409,4.842L13.409,4.52C13.382,4.439 13.355,4.332 13.329,4.252C13.087,3.635 12.766,3.099 12.364,2.589C11.961,2.079 11.479,1.651 10.969,1.302C10.433,0.954 9.843,0.659 9.226,0.471C8.609,0.283 7.939,0.176 7.268,0.176C6.384,0.176 5.525,0.337 4.748,0.686C3.944,1.034 3.247,1.489 2.657,2.079C2.067,2.67 1.611,3.367 1.262,4.144C0.913,4.949 0.726,5.807 0.726,6.692L0.726,12.484Z" style="fill:rgb(51,41,49);"/>
                    </g>
                    <path d="M94.289,26.352L89.972,26.352C90.159,25.896 90.347,25.44 90.535,25.038C90.723,24.636 90.883,24.234 91.071,23.831C91.259,23.429 91.419,23.027 91.607,22.624C91.768,22.223 91.956,21.82 92.143,21.391L94.289,26.352ZM84.421,32.063C84.394,32.144 84.367,32.225 84.34,32.331C84.313,32.438 84.313,32.546 84.313,32.626C84.313,32.975 84.448,33.297 84.716,33.592C84.957,33.914 85.306,34.075 85.762,34.075C86.057,34.075 86.298,33.994 86.539,33.86C86.781,33.726 86.968,33.485 87.102,33.19C87.371,32.519 87.639,31.876 87.934,31.232C88.202,30.615 88.47,29.972 88.765,29.302L95.549,29.302L97.212,33.19C97.453,33.78 97.882,34.075 98.552,34.075C99.008,34.075 99.357,33.914 99.625,33.592C99.866,33.297 100,32.975 100,32.626C100,32.466 99.947,32.278 99.866,32.063L93.484,17.127C93.351,16.806 93.082,16.565 92.706,16.377C92.626,16.323 92.519,16.297 92.439,16.27C92.331,16.243 92.224,16.243 92.143,16.243C91.527,16.243 91.098,16.538 90.803,17.127L84.421,32.063Z" style="fill:rgb(51,41,49);"/>
                    <path d="M12.22,16.237L4.253,27.661M12.22,16.237L28.733,12.164M12.533,16.572L17.157,24.296M10.571,14.325L3.786,8.77M13.201,13.096L17.195,4.798" style="fill:none;stroke:rgb(51,41,49);stroke-width:0.75px;"/>
                    <g transform="matrix(1,0,0,1,0,23.61)">
                        <path d="M0.01,4.61C-0.141,2.608 1.361,0.863 3.364,0.713C5.367,0.56 7.113,2.063 7.262,4.065C7.412,6.068 5.912,7.814 3.909,7.964C1.906,8.115 0.16,6.613 0.01,4.61" style="fill:rgb(51,41,49);"/>
                    </g>
                    <path d="M16.022,24.376C16.093,23.756 16.654,23.311 17.276,23.382C17.897,23.454 18.341,24.016 18.27,24.636C18.196,25.257 17.636,25.702 17.016,25.631C16.395,25.559 15.95,24.998 16.022,24.376M2.322,9.603C1.931,8.805 2.262,7.839 3.062,7.448C3.861,7.057 4.826,7.388 5.218,8.187C5.608,8.986 5.278,9.952 4.478,10.343C3.678,10.734 2.713,10.403 2.322,9.603M26.143,12.036C26.051,10.821 26.962,9.761 28.179,9.669C29.394,9.578 30.454,10.489 30.546,11.705C30.637,12.921 29.726,13.981 28.509,14.072C27.294,14.163 26.234,13.252 26.143,12.036M16.162,0.631C17.364,-0.349 19.135,-0.168 20.116,1.034C21.096,2.236 20.915,4.007 19.713,4.988C18.51,5.966 16.739,5.786 15.76,4.584C14.778,3.381 14.96,1.611 16.162,0.631M8.566,11.561C10.875,9.679 14.275,10.025 16.16,12.335C18.04,14.644 17.694,18.044 15.386,19.927C13.074,21.808 9.675,21.462 7.794,19.152C5.908,16.843 6.257,13.443 8.566,11.561" style="fill:rgb(51,41,49);"/>
                </g>
            </g>
        </g>
    </g>
</svg>
