<?xml version="1.0" encoding="UTF-8" standalone="no"?>
<!DOCTYPE svg PUBLIC "-//W3C//DTD SVG 1.1//EN" "http://www.w3.org/Graphics/SVG/1.1/DTD/svg11.dtd">
<svg width="100%" height="100%" viewBox="0 0 41 35" version="1.1" xmlns="http://www.w3.org/2000/svg" xmlns:xlink="http://www.w3.org/1999/xlink" xml:space="preserve" xmlns:serif="http://www.serif.com/" style="fill-rule:evenodd;clip-rule:evenodd;">
    <g>
        <path d="M17.444,16.237L9.477,27.661M17.444,16.237L33.957,12.164M17.757,16.572L22.381,24.296M15.795,14.324L9.01,8.77M18.425,13.096L22.419,4.799" style="fill:none;fill-rule:nonzero;stroke:rgb(126,129,130);stroke-width:0.75px;"/>
        <path d="M5.234,28.221C5.083,26.219 6.585,24.474 8.588,24.324C10.591,24.171 12.337,25.675 12.486,27.677C12.636,29.679 11.136,31.425 9.133,31.575C7.13,31.726 5.384,30.224 5.234,28.221" style="fill:rgb(126,129,130);fill-rule:nonzero;"/>
        <path d="M21.246,24.377C21.317,23.756 21.878,23.312 22.5,23.383C23.121,23.455 23.565,24.017 23.494,24.637C23.42,25.258 22.86,25.702 22.24,25.631C21.619,25.56 21.174,24.998 21.246,24.377M7.546,9.604C7.155,8.805 7.486,7.839 8.286,7.449C9.085,7.057 10.05,7.389 10.442,8.188C10.832,8.987 10.502,9.953 9.702,10.343C8.902,10.734 7.938,10.402 7.546,9.604M31.367,12.036C31.275,10.821 32.186,9.762 33.403,9.669C34.618,9.578 35.678,10.489 35.77,11.705C35.861,12.921 34.95,13.98 33.733,14.072C32.518,14.163 31.458,13.252 31.367,12.036M21.386,0.631C22.588,-0.348 24.359,-0.168 25.34,1.034C26.32,2.236 26.139,4.008 24.937,4.988C23.734,5.967 21.963,5.786 20.984,4.584C20.002,3.381 20.184,1.611 21.386,0.631M13.79,11.561C16.099,9.679 19.499,10.025 21.384,12.334C23.264,14.644 22.918,18.043 20.61,19.928C18.298,21.808 14.899,21.463 13.018,19.152C11.132,16.843 11.481,13.442 13.79,11.561" style="fill:rgb(126,129,130);fill-rule:nonzero;"/>
    </g>
</svg>
