<svg width="286" height="99" viewBox="0 0 286 99" xmlns="http://www.w3.org/2000/svg"><title>icinga-logo-big</title><g fill="#FEFEFE"><path d="M78.018 47.989c-.819.818-1.227 1.815-1.227 2.99v42.179c0 1.178.422 2.174 1.266 2.992.844.818 1.827 1.227 2.953 1.227 1.176 0 2.172-.409 2.99-1.227.818-.818 1.227-1.814 1.227-2.992v-42.179c0-1.175-.421-2.172-1.265-2.99-.844-.818-1.829-1.227-2.952-1.227-1.177 0-2.175.409-2.992 1.227zM102.215 59.76c.536-1.252 1.276-2.339 2.224-3.259.945-.921 2.045-1.648 3.297-2.185 1.251-.537 2.594-.806 4.026-.806 2.198 0 4.154.613 5.867 1.841 1.712 1.226 2.953 2.787 3.719 4.679.817 1.686 2.096 2.53 3.835 2.53 1.329 0 2.351-.435 3.067-1.303.716-.87 1.073-1.815 1.073-2.839 0-.306-.037-.663-.114-1.073-.077-.408-.218-.792-.422-1.15-.716-1.636-1.648-3.132-2.8-4.487-1.149-1.353-2.466-2.53-3.948-3.528-1.484-.997-3.095-1.763-4.832-2.3-1.738-.537-3.554-.806-5.445-.806-2.607 0-5.049.487-7.323 1.457-2.277.972-4.256 2.301-5.945 3.989-1.686 1.686-3.016 3.669-3.987 5.942-.972 2.277-1.457 4.693-1.457 7.247v16.643c0 2.557.498 4.96 1.495 7.208.998 2.251 2.34 4.219 4.026 5.905 1.688 1.688 3.667 3.03 5.944 4.027 2.274.997 4.69 1.495 7.247 1.495 1.994 0 3.885-.281 5.676-.844 1.788-.563 3.423-1.366 4.907-2.415 1.483-1.048 2.799-2.286 3.95-3.719 1.15-1.431 2.058-3.018 2.723-4.756.203-.459.305-.996.305-1.61 0-1.022-.37-1.967-1.112-2.837-.741-.869-1.751-1.304-3.028-1.304-.666 0-1.369.23-2.109.69-.742.461-1.292 1.048-1.648 1.763-.819 1.894-2.085 3.465-3.797 4.717-1.713 1.254-3.669 1.879-5.867 1.879-1.38 0-2.696-.269-3.948-.805-1.255-.537-2.353-1.265-3.299-2.186-.947-.919-1.7-2.005-2.262-3.259-.563-1.252-.843-2.569-.843-3.949v-16.643c0-1.38.268-2.695.805-3.949M141.672 46.762c-1.178 0-2.176.409-2.992 1.227-.819.818-1.227 1.815-1.227 2.99v42.179c0 1.178.421 2.174 1.265 2.992.844.818 1.828 1.227 2.954 1.227 1.174 0 2.171-.409 2.989-1.227.818-.818 1.227-1.814 1.227-2.992v-42.179c0-1.175-.421-2.172-1.265-2.99-.844-.818-1.828-1.227-2.951-1.227M185.536 50.673c-1.687-1.687-3.669-3.03-5.943-4.027-2.276-.996-4.692-1.495-7.247-1.495-2.558 0-4.973.499-7.247 1.495-2.277.997-4.257 2.34-5.945 4.027-1.686 1.687-3.016 3.655-3.988 5.904-.971 2.25-1.456 4.654-1.456 7.21v29.371c0 1.178.409 2.174 1.227 2.992.817.818 1.815 1.227 2.99 1.227 1.176 0 2.16-.409 2.954-1.227.791-.818 1.187-1.814 1.187-2.992v-29.371c0-1.382.27-2.697.807-3.95.537-1.252 1.265-2.34 2.185-3.26.92-.92 2.006-1.649 3.259-2.185 1.252-.537 2.594-.805 4.027-.805 1.43 0 2.772.268 4.026.805 1.252.536 2.351 1.265 3.298 2.185.945.92 1.686 2.008 2.223 3.26.538 1.253.805 2.568.805 3.95v29.371c0 1.178.423 2.174 1.267 2.992.842.818 1.827 1.227 2.952 1.227 1.175 0 2.159-.409 2.952-1.227.792-.818 1.188-1.814 1.188-2.992v-29.371c0-2.556-.498-4.96-1.495-7.21-.997-2.249-2.339-4.217-4.026-5.904M232.623 69.922h-8.359c-1.175 0-2.161.41-2.953 1.227-.792.819-1.188 1.79-1.188 2.915 0 1.175.396 2.173 1.188 2.99.792.818 1.778 1.227 2.953 1.227h4.141v2.071c0 1.38-.268 2.697-.804 3.949-.538 1.254-1.266 2.34-2.186 3.259-.921.921-2.007 1.649-3.259 2.186-1.255.536-2.596.805-4.027.805-1.38 0-2.697-.269-3.949-.805-1.254-.537-2.353-1.265-3.298-2.186-.946-.919-1.687-2.005-2.224-3.259-.537-1.252-.806-2.569-.806-3.949v-16.565c0-1.382.269-2.697.806-3.95.537-1.252 1.266-2.34 2.186-3.26.921-.92 2.006-1.649 3.259-2.185 1.252-.537 2.594-.805 4.026-.805 2.197 0 4.153.614 5.867 1.841 1.713 1.226 2.978 2.812 3.796 4.754.356.819.893 1.432 1.611 1.841.715.41 1.431.614 2.147.614 1.329 0 2.351-.435 3.067-1.305.716-.868 1.073-1.813 1.073-2.836 0-.307-.012-.602-.038-.883-.025-.281-.089-.548-.19-.805-.717-1.738-1.65-3.323-2.8-4.754-1.151-1.431-2.481-2.658-3.988-3.682-1.509-1.021-3.157-1.815-4.947-2.378-1.79-.561-3.656-.843-5.598-.843-2.557 0-4.973.486-7.247 1.457-2.276.971-4.257 2.3-5.945 3.988-1.685 1.687-3.028 3.669-4.024 5.944-.998 2.275-1.497 4.691-1.497 7.247v16.565c0 2.557.499 4.96 1.497 7.208.996 2.251 2.339 4.218 4.024 5.905 1.688 1.687 3.669 3.03 5.945 4.027 2.274.996 4.69 1.494 7.247 1.494 2.556 0 4.973-.498 7.247-1.494 2.274-.997 4.257-2.34 5.944-4.027 1.688-1.687 3.029-3.654 4.026-5.905.997-2.248 1.496-4.651 1.496-7.208v-6.288c0-1.176-.41-2.161-1.228-2.954-.818-.792-1.814-1.188-2.991-1.188" id="Mask"/><path d="M257.318 75.366c.561-1.329 1.098-2.58 1.61-3.758.51-1.175 1.022-2.325 1.535-3.45.509-1.124 1.007-2.263 1.494-3.414.486-1.149 1.009-2.339 1.573-3.566l6.136 14.188h-12.348zm28.298 16.335l-18.252-42.715c-.41-.921-1.15-1.636-2.224-2.148-.256-.154-.525-.255-.805-.307-.282-.051-.551-.077-.805-.077-1.739 0-3.018.844-3.836 2.532l-18.251 42.715c-.104.206-.18.461-.23.768-.052.306-.077.587-.077.843 0 .972.369 1.906 1.112 2.799.74.896 1.751 1.342 3.03 1.342.816 0 1.558-.204 2.224-.613.663-.41 1.2-1.048 1.609-1.917.768-1.892 1.547-3.744 2.34-5.561.792-1.814 1.596-3.668 2.415-5.559h19.404l4.754 11.12c.664 1.687 1.942 2.53 3.835 2.53 1.276 0 2.286-.446 3.028-1.342.741-.893 1.113-1.827 1.113-2.799 0-.461-.129-.997-.384-1.611zM80.591 27.652c-3.479.263-6.084 3.296-5.824 6.771.04.528.15 1.032.309 1.512l-25.644 6.324c-.448-2.481-1.51-4.889-3.214-6.981-1.378-1.69-3.042-3.006-4.861-3.949l7.524-15.638c2.492.786 5.32.345 7.498-1.426 3.439-2.806 3.953-7.868 1.152-11.306-2.805-3.439-7.869-3.955-11.307-1.154-3.439 2.803-3.958 7.866-1.151 11.306.761.936 1.694 1.645 2.712 2.141l-7.496 15.578c-5.101-2.164-11.2-1.509-15.791 2.232-.502.409-.959.851-1.395 1.307l-8.264-6.765c.67-1.262.757-2.81.084-4.19-1.118-2.286-3.88-3.234-6.165-2.114-2.286 1.122-3.234 3.881-2.116 6.165 1.12 2.286 3.879 3.236 6.167 2.117.525-.258.971-.611 1.345-1.017l8.158 6.678c-4.565 5.559-4.749 13.743-.022 19.531 1.105 1.357 2.397 2.461 3.801 3.337l-9.434 13.526c-1.946-1.468-4.411-2.271-7.034-2.072-5.73.43-10.025 5.422-9.593 11.147.429 5.731 5.422 10.024 11.151 9.593 5.728-.43 10.02-5.424 9.59-11.151-.201-2.678-1.407-5.033-3.211-6.749l9.553-13.698c4.544 2.368 10.082 2.348 14.679-.229l5.378 8.984c-.723.512-1.238 1.307-1.347 2.255-.207 1.776 1.065 3.382 2.842 3.588 1.774.202 3.378-1.068 3.586-2.845.204-1.773-1.066-3.379-2.843-3.584-.403-.047-.794-.008-1.164.086l-5.44-9.088c.409-.273.811-.564 1.201-.881 4.181-3.411 6.104-8.564 5.59-13.559l25.964-6.403c1.163 2.073 3.45 3.404 5.977 3.214 3.478-.258 6.085-3.291 5.823-6.767-.262-3.478-3.293-6.085-6.768-5.826"/></g></svg>
