<?xml version="1.0" encoding="utf-8"?>
<!-- Generator: Adobe Illustrator 16.0.4, SVG Export Plug-In . SVG Version: 6.00 Build 0)  -->
<!DOCTYPE svg PUBLIC "-//W3C//DTD SVG 1.1//EN" "http://www.w3.org/Graphics/SVG/1.1/DTD/svg11.dtd">
<svg version="1.1" id="Ebene_1" xmlns="http://www.w3.org/2000/svg" xmlns:xlink="http://www.w3.org/1999/xlink" x="0px" y="0px"
	 width="41px" height="35px" viewBox="0 82.75 41 35" enable-background="new 0 82.75 41 35" xml:space="preserve">
<g>
	<path fill="none" stroke="#FFFFFF" stroke-width="0.75" d="M17.444,98.987l-7.967,11.424 M17.444,98.987l16.513-4.073
		 M17.757,99.322l4.624,7.724 M15.795,97.074L9.01,91.52 M18.425,95.846l3.994-8.297"/>
	<defs>
		<filter id="Adobe_OpacityMaskFilter" filterUnits="userSpaceOnUse" x="5.224" y="107.062" width="7.272" height="7.272">
			<feColorMatrix  type="matrix" values="1 0 0 0 0  0 1 0 0 0  0 0 1 0 0  0 0 0 1 0"/>
		</filter>
	</defs>
	<mask maskUnits="userSpaceOnUse" x="5.224" y="107.062" width="7.272" height="7.272" id="f_1_">
		<g filter="url(#Adobe_OpacityMaskFilter)">
			<polygon id="e_1_" fill="#FFFFFF" points="5.224,107.062 5.224,114.335 12.497,114.335 12.497,107.062 			"/>
		</g>
	</mask>
	<path mask="url(#f_1_)" fill="#FFFFFF" d="M5.234,110.971c-0.151-2.002,1.351-3.747,3.354-3.897
		c2.003-0.153,3.749,1.351,3.898,3.353c0.15,2.002-1.35,3.748-3.353,3.898C7.13,114.476,5.384,112.974,5.234,110.971"/>
	<path fill="#FFFFFF" d="M21.246,107.127c0.071-0.621,0.632-1.065,1.254-0.994c0.621,0.072,1.065,0.634,0.994,1.254
		c-0.074,0.621-0.634,1.065-1.254,0.994C21.619,108.31,21.174,107.748,21.246,107.127 M7.546,92.354
		c-0.391-0.799-0.06-1.765,0.74-2.155c0.799-0.392,1.764-0.06,2.156,0.739c0.39,0.799,0.06,1.765-0.74,2.155
		C8.902,93.484,7.938,93.152,7.546,92.354 M31.367,94.786c-0.092-1.215,0.819-2.274,2.036-2.367c1.215-0.091,2.275,0.82,2.367,2.036
		c0.091,1.216-0.82,2.275-2.037,2.367C32.518,96.913,31.458,96.002,31.367,94.786 M21.386,83.381
		c1.202-0.979,2.973-0.799,3.954,0.403c0.98,1.202,0.799,2.974-0.403,3.954c-1.203,0.979-2.974,0.798-3.953-0.404
		C20.002,86.131,20.184,84.361,21.386,83.381 M13.79,94.311c2.309-1.882,5.709-1.536,7.594,0.773c1.88,2.31,1.534,5.709-0.774,7.594
		c-2.312,1.88-5.711,1.535-7.592-0.776C11.132,99.593,11.481,96.192,13.79,94.311"/>
</g>
</svg>
