<svg xmlns="http://www.w3.org/2000/svg" width="100" height="35" viewBox="0 0 100 35" xmlns:xlink="http://www.w3.org/1999/xlink">
  <defs>
    <polygon id="a" points=".535 19 13.218 19 13.218 .149 .535 .149"/>
    <polygon id="c" points=".726 19 13.811 19 13.811 .176 .726 .176 .726 19"/>
    <polygon id="e" points="0 .703 0 7.975 7.273 7.975 7.273 .703 0 .703"/>
  </defs>
  <g fill="none" fill-rule="evenodd">
    <path fill="#FFFFFF" d="M26.8501,32.5727 C26.8501,32.9747 27.0111,33.3237 27.3061,33.6187 C27.6001,33.9137 27.9221,34.0477 28.3251,34.0477 C28.7271,34.0477 29.0751,33.9137 29.3711,33.6187 C29.6651,33.3237 29.8001,32.9747 29.8001,32.5727 L29.8001,17.8247 C29.8001,17.4227 29.6651,17.0737 29.3711,16.7787 C29.0751,16.4837 28.7271,16.3497 28.3251,16.3497 C27.9221,16.3497 27.5741,16.4837 27.2791,16.7787 C26.9841,17.0737 26.8501,17.4227 26.8501,17.8247 L26.8501,32.5727 Z"/>
    <g transform="translate(32 15.61)">
      <mask id="b" fill="white">
        <use xlink:href="#a"/>
      </mask>
      <path fill="#FFFFFF" d="M0.5347,12.4844 C0.5347,13.3694 0.7227,14.2274 1.0717,15.0044 C1.4197,15.7824 1.8757,16.4794 2.4657,17.0694 C3.0557,17.6594 3.7527,18.1154 4.5567,18.4634 C5.3347,18.8124 6.1927,19.0004 7.0767,19.0004 C7.7747,19.0004 8.4447,18.8924 9.0617,18.7054 C9.6787,18.5174 10.2677,18.2224 10.7777,17.8474 C11.2877,17.4984 11.7697,17.0694 12.1727,16.5604 C12.5747,16.0504 12.8697,15.5144 13.1107,14.8974 C13.1907,14.7364 13.2177,14.5484 13.2177,14.3344 C13.2177,13.9854 13.0837,13.6374 12.8427,13.3424 C12.5747,13.0474 12.2257,12.8864 11.7697,12.8864 C11.5287,12.8864 11.2877,12.9664 11.0457,13.1284 C10.7777,13.2884 10.5897,13.5034 10.4557,13.7444 C10.1607,14.4144 9.7327,14.9514 9.1427,15.3804 C8.5257,15.8364 7.8547,16.0504 7.0767,16.0504 C6.5947,16.0504 6.1387,15.9424 5.7097,15.7554 C5.2537,15.5674 4.8787,15.3264 4.5567,15.0044 C4.2087,14.6834 3.9407,14.3074 3.7527,13.8514 C3.5647,13.4224 3.4577,12.9664 3.4577,12.4844 L3.4577,6.6654 C3.4577,6.1824 3.5647,5.7274 3.7527,5.2714 C3.9407,4.8424 4.1817,4.4664 4.5307,4.1444 C4.8517,3.8224 5.2267,3.5544 5.6827,3.3674 C6.1117,3.1794 6.5677,3.0994 7.0767,3.0994 C7.8547,3.0994 8.5257,3.3144 9.1427,3.7424 C9.7327,4.1714 10.1607,4.7074 10.4297,5.3784 C10.7237,5.9684 11.1537,6.2634 11.7697,6.2634 C12.2257,6.2634 12.6007,6.1024 12.8427,5.8074 C13.0837,5.5124 13.2177,5.1634 13.2177,4.8154 C13.2177,4.7074 13.2177,4.5734 13.1907,4.4394 C13.1647,4.3054 13.1107,4.1714 13.0307,4.0374 C12.7887,3.4744 12.4677,2.9384 12.0647,2.4554 C11.6627,1.9994 11.1807,1.5704 10.6707,1.2214 C10.1607,0.8734 9.5977,0.6054 8.9817,0.4174 C8.3647,0.2304 7.7477,0.1494 7.0767,0.1494 C6.1657,0.1494 5.3077,0.3104 4.5307,0.6594 C3.7257,1.0074 3.0287,1.4634 2.4387,2.0534 C1.8487,2.6434 1.3927,3.3404 1.0447,4.1174 C0.6957,4.9224 0.5347,5.7804 0.5347,6.6654 L0.5347,12.4844 Z" mask="url(#b)"/>
    </g>
    <path fill="#FFFFFF" d="M48.0601 32.5727C48.0601 32.9747 48.2211 33.3237 48.5161 33.6187 48.8111 33.9137 49.1331 34.0477 49.5351 34.0477 49.9371 34.0477 50.2861 33.9137 50.5811 33.6187 50.8751 33.3237 51.0101 32.9747 51.0101 32.5727L51.0101 17.8247C51.0101 17.4227 50.8751 17.0737 50.5811 16.7787 50.2861 16.4837 49.9371 16.3497 49.5351 16.3497 49.1331 16.3497 48.7841 16.4837 48.4891 16.7787 48.1941 17.0737 48.0601 17.4227 48.0601 17.8247L48.0601 32.5727zM53.7446 32.5727C53.7446 32.9747 53.8786 33.3237 54.1736 33.6187 54.4686 33.9137 54.8176 34.0477 55.2196 34.0477 55.6216 34.0477 55.9706 33.9137 56.2656 33.6187 56.5336 33.3237 56.6676 32.9747 56.6676 32.5727L56.6676 22.3027C56.6676 21.8197 56.7746 21.3647 56.9626 20.9087 57.1506 20.4797 57.3916 20.1047 57.7136 19.7817 58.0356 19.4607 58.4106 19.1927 58.8666 19.0047 59.2956 18.8167 59.7506 18.7367 60.2606 18.7367 60.7696 18.7367 61.2256 18.8167 61.6816 19.0047 62.1106 19.1927 62.4866 19.4607 62.8346 19.7817 63.1566 20.1047 63.4246 20.4797 63.6126 20.9087 63.7996 21.3647 63.8806 21.8197 63.8806 22.3027L63.8806 32.5727C63.8806 32.9747 64.0416 33.3237 64.3366 33.6187 64.6316 33.9137 64.9526 34.0477 65.3556 34.0477 65.7576 34.0477 66.1056 33.9137 66.4006 33.6187 66.6686 33.3237 66.8036 32.9747 66.8036 32.5727L66.8036 22.3027C66.8036 21.4177 66.6426 20.5597 66.2936 19.7817 65.9456 19.0047 65.4626 18.3077 64.8726 17.7177 64.2826 17.1277 63.5856 16.6447 62.8076 16.2967 62.0036 15.9477 61.1456 15.7867 60.2606 15.7867 59.3756 15.7867 58.5176 15.9477 57.7406 16.2967 56.9356 16.6447 56.2386 17.1277 55.6486 17.7177 55.0586 18.3077 54.6026 19.0047 54.2546 19.7817 53.9056 20.5597 53.7446 21.4177 53.7446 22.3027L53.7446 32.5727z"/>
    <g transform="translate(69 15.61)">
      <mask id="d" fill="white">
        <use xlink:href="#c"/>
      </mask>
      <path fill="#FFFFFF" d="M0.7261,12.4844 C0.7261,13.3694 0.9131,14.2274 1.2621,15.0044 C1.6111,15.7824 2.0671,16.4794 2.6571,17.0694 C3.2471,17.6594 3.9441,18.1154 4.7481,18.4634 C5.5251,18.8124 6.3841,19.0004 7.2681,19.0004 C8.1541,19.0004 9.0121,18.8124 9.8161,18.4634 C10.5941,18.1154 11.2911,17.6594 11.8811,17.0694 C12.4711,16.4794 12.9541,15.7824 13.3021,15.0044 C13.6501,14.2274 13.8111,13.3694 13.8111,12.4844 L13.8111,10.2854 C13.8111,9.8834 13.6771,9.5344 13.3821,9.2394 C13.0871,8.9714 12.7391,8.8374 12.3371,8.8374 L9.4141,8.8374 C9.0121,8.8374 8.6631,8.9714 8.3951,9.2664 C8.1001,9.5614 7.9661,9.8834 7.9661,10.2854 C7.9661,10.6874 8.1001,11.0364 8.3951,11.3314 C8.6631,11.6264 9.0121,11.7604 9.4141,11.7604 L10.8621,11.7604 L10.8621,12.4844 C10.8621,12.9664 10.7811,13.4224 10.5941,13.8514 C10.4061,14.3074 10.1381,14.6834 9.8161,15.0044 C9.4951,15.3264 9.1191,15.5674 8.6901,15.7554 C8.2341,15.9424 7.7781,16.0504 7.2681,16.0504 C6.7861,16.0504 6.3301,15.9424 5.9011,15.7554 C5.4451,15.5674 5.0701,15.3264 4.7481,15.0044 C4.4001,14.6834 4.1581,14.3074 3.9711,13.8514 C3.7831,13.4224 3.6761,12.9664 3.6761,12.4844 L3.6761,6.6924 C3.6761,6.2094 3.7831,5.7544 3.9711,5.2974 C4.1581,4.8684 4.4001,4.4934 4.7221,4.1714 C5.0431,3.8494 5.4181,3.5814 5.8741,3.3944 C6.3031,3.2064 6.7591,3.1264 7.2681,3.1264 C8.0461,3.1264 8.7171,3.3404 9.3331,3.7694 C9.9231,4.1984 10.3521,4.7614 10.6471,5.4314 C10.7811,5.7274 10.9691,5.9414 11.2101,6.0754 C11.4521,6.2094 11.7201,6.2904 11.9611,6.2904 C12.4171,6.2904 12.7921,6.1294 13.0341,5.8344 C13.2751,5.5394 13.4091,5.1904 13.4091,4.8424 L13.4091,4.5204 C13.3821,4.4394 13.3551,4.3324 13.3291,4.2524 C13.0871,3.6354 12.7661,3.0994 12.3641,2.5894 C11.9611,2.0794 11.4791,1.6514 10.9691,1.3024 C10.4331,0.9544 9.8431,0.6594 9.2261,0.4714 C8.6091,0.2834 7.9391,0.1764 7.2681,0.1764 C6.3841,0.1764 5.5251,0.3374 4.7481,0.6864 C3.9441,1.0344 3.2471,1.4894 2.6571,2.0794 C2.0671,2.6704 1.6111,3.3674 1.2621,4.1444 C0.9131,4.9494 0.7261,5.8074 0.7261,6.6924 L0.7261,12.4844 Z" mask="url(#d)"/>
    </g>
    <path fill="#FFFFFF" d="M94.2886,26.352 L89.9716,26.352 C90.1586,25.896 90.3466,25.44 90.5346,25.038 C90.7226,24.636 90.8826,24.234 91.0706,23.831 C91.2586,23.429 91.4186,23.027 91.6066,22.624 C91.7676,22.223 91.9556,21.82 92.1426,21.391 L94.2886,26.352 Z M84.4206,32.063 C84.3936,32.144 84.3666,32.225 84.3396,32.331 C84.3126,32.438 84.3126,32.546 84.3126,32.626 C84.3126,32.975 84.4476,33.297 84.7156,33.592 C84.9566,33.914 85.3056,34.075 85.7616,34.075 C86.0566,34.075 86.2976,33.994 86.5386,33.86 C86.7806,33.726 86.9676,33.485 87.1016,33.19 C87.3706,32.519 87.6386,31.876 87.9336,31.232 C88.2016,30.615 88.4696,29.972 88.7646,29.302 L95.5486,29.302 L97.2116,33.19 C97.4526,33.78 97.8816,34.075 98.5516,34.075 C99.0076,34.075 99.3566,33.914 99.6246,33.592 C99.8656,33.297 99.9996,32.975 99.9996,32.626 C99.9996,32.466 99.9466,32.278 99.8656,32.063 L93.4836,17.127 C93.3506,16.806 93.0816,16.565 92.7056,16.377 C92.6256,16.323 92.5186,16.297 92.4386,16.27 C92.3306,16.243 92.2236,16.243 92.1426,16.243 C91.5266,16.243 91.0976,16.538 90.8026,17.127 L84.4206,32.063 Z"/>
    <path stroke="#FFFFFF" stroke-width=".75" d="M12.2197 16.2373L4.2527 27.6613M12.2197 16.2373L28.7327 12.1643M12.5327 16.5717L17.1567 24.2957M10.5713 14.3247L3.7863 8.7697M13.2007 13.0962L17.1947 4.7982"/>
    <g transform="translate(0 23.61)">
      <mask id="f" fill="white">
        <use xlink:href="#e"/>
      </mask>
      <path fill="#FFFFFF" d="M0.0103,4.6104 C-0.1407,2.6084 1.3613,0.8634 3.3643,0.7134 C5.3673,0.5604 7.1133,2.0634 7.2623,4.0654 C7.4123,6.0684 5.9123,7.8144 3.9093,7.9644 C1.9063,8.1154 0.1603,6.6134 0.0103,4.6104" mask="url(#f)"/>
    </g>
    <path fill="#FFFFFF" d="M16.022 24.3764C16.093 23.7564 16.654 23.3114 17.276 23.3824 17.897 23.4544 18.341 24.0164 18.27 24.6364 18.196 25.2574 17.636 25.7024 17.016 25.6314 16.395 25.5594 15.95 24.9984 16.022 24.3764M2.3223 9.603C1.9313 8.805 2.2623 7.839 3.0623 7.448 3.8613 7.057 4.8263 7.388 5.2183 8.187 5.6083 8.986 5.2783 9.952 4.4783 10.343 3.6783 10.734 2.7133 10.403 2.3223 9.603M26.1426 12.0361C26.0506 10.8211 26.9616 9.7611 28.1786 9.6691 29.3936 9.5781 30.4536 10.4891 30.5456 11.7051 30.6366 12.9211 29.7256 13.9811 28.5086 14.0721 27.2936 14.1631 26.2336 13.2521 26.1426 12.0361M16.1616.6313C17.3636-.3487 19.1346-.1677 20.1156 1.0343 21.0956 2.2363 20.9146 4.0073 19.7126 4.9883 18.5096 5.9663 16.7386 5.7863 15.7596 4.5843 14.7776 3.3813 14.9596 1.6113 16.1616.6313M8.5659 11.5605C10.8749 9.6785 14.2749 10.0245 16.1599 12.3345 18.0399 14.6435 17.6939 18.0435 15.3859 19.9275 13.0739 21.8075 9.6749 21.4625 7.7939 19.1515 5.9079 16.8425 6.2569 13.4425 8.5659 11.5605"/>
  </g>
</svg>
