<svg width="100" height="38" viewBox="0 0 100 38" xmlns="http://www.w3.org/2000/svg" xmlns:xlink="http://www.w3.org/1999/xlink"><title>icinga-logo</title><defs><path id="a" d="M29.001 0h-29.001v33.694h97.493v-33.694h-68.492v30h-29.001v-30h29.001z"/></defs><g fill="none"><path d="M27.041 15.745c-.404 0-.747.141-1.028.422s-.422.624-.422 1.028v14.496c0 .405.145.747.435 1.028.29.281.628.422 1.015.422.404 0 .747-.141 1.028-.422s.422-.623.422-1.028v-14.496c0-.404-.145-.747-.435-1.028-.29-.281-.629-.422-1.015-.422" fill="#FEFEFE"/><path d="M34.33 20.213c.185-.431.439-.804.764-1.12.325-.317.703-.567 1.133-.751.431-.185.892-.277 1.384-.277.756 0 1.427.211 2.017.632.588.422 1.014.958 1.278 1.608.281.58.72.87 1.318.87.457 0 .808-.15 1.054-.448.246-.299.369-.623.369-.976 0-.104-.013-.227-.04-.368-.026-.141-.074-.273-.145-.396-.246-.562-.566-1.076-.962-1.542-.395-.465-.847-.87-1.357-1.212-.51-.342-1.063-.606-1.66-.791-.598-.184-1.222-.277-1.872-.277-.896 0-1.735.168-2.517.501-.782.334-1.463.791-2.042 1.371-.58.579-1.037 1.261-1.371 2.042-.334.782-.501 1.613-.501 2.491v5.719c0 .879.171 1.705.514 2.478.343.773.804 1.45 1.384 2.03.58.579 1.261 1.041 2.043 1.383.781.343 1.611.514 2.49.514.686 0 1.336-.096 1.951-.29.615-.193 1.177-.469 1.686-.83.51-.36.962-.786 1.358-1.278.395-.492.707-1.037.935-1.635.071-.158.106-.342.106-.552 0-.352-.128-.677-.382-.976-.255-.299-.602-.448-1.041-.448-.229 0-.471.079-.725.237-.255.158-.444.36-.567.606-.281.651-.716 1.191-1.304 1.622-.59.43-1.261.645-2.017.645-.474 0-.927-.093-1.357-.276-.431-.185-.808-.436-1.133-.752-.326-.316-.585-.69-.778-1.12-.194-.43-.29-.883-.29-1.358v-5.719c0-.474.092-.926.277-1.357" fill="#FEFEFE"/><path d="M47.89 15.745c-.404 0-.747.141-1.028.422s-.422.624-.422 1.028v14.496c0 .405.145.747.435 1.028.29.281.628.422 1.015.422.404 0 .747-.141 1.028-.422s.422-.623.422-1.028v-14.496c0-.404-.145-.747-.435-1.028-.29-.281-.629-.422-1.015-.422" fill="#FEFEFE"/><path d="M62.965 17.09c-.58-.58-1.261-1.042-2.042-1.384-.783-.343-1.613-.514-2.491-.514-.879 0-1.709.171-2.491.514-.782.342-1.463.804-2.042 1.384-.58.579-1.038 1.256-1.371 2.029-.334.774-.501 1.599-.501 2.478v10.095c0 .404.141.747.422 1.027.281.281.623.422 1.028.422.404 0 .742-.141 1.014-.422.273-.28.409-.623.409-1.027v-10.095c0-.475.092-.927.277-1.358.184-.43.434-.803.751-1.12.316-.316.689-.567 1.12-.751.431-.184.892-.277 1.384-.277.491 0 .953.093 1.384.277.43.184.808.435 1.133.751.325.317.58.69.764 1.12.185.431.277.883.277 1.358v10.095c0 .404.145.747.435 1.027.29.281.628.422 1.015.422.404 0 .742-.141 1.014-.422.273-.28.408-.623.408-1.027v-10.095c0-.879-.17-1.704-.513-2.478-.343-.773-.804-1.45-1.384-2.029" fill="#FEFEFE"/><path d="M79.148 23.705h-2.873c-.404 0-.742.141-1.015.422-.272.281-.408.615-.408 1.001 0 .404.136.747.408 1.028.273.281.611.422 1.015.422h1.424v.711c0 .475-.093.928-.278 1.357-.184.431-.434.805-.751 1.121-.316.316-.689.567-1.12.751-.43.184-.891.277-1.383.277-.475 0-.927-.093-1.358-.277-.431-.184-.808-.435-1.133-.751-.326-.316-.58-.69-.764-1.121-.185-.429-.277-.882-.277-1.357v-5.692c0-.475.092-.927.277-1.358.184-.43.434-.804.751-1.12.316-.316.689-.567 1.12-.751.43-.184.891-.277 1.384-.277.754 0 1.427.211 2.016.633.588.421 1.024.966 1.305 1.633.122.282.306.493.553.633.246.141.492.211.738.211.457 0 .808-.149 1.055-.448.246-.299.369-.623.369-.976l-.014-.302c-.009-.097-.031-.189-.065-.277-.247-.597-.568-1.142-.962-1.635-.396-.491-.853-.913-1.371-1.264-.519-.352-1.085-.624-1.701-.818-.615-.193-1.255-.29-1.923-.29-.879 0-1.709.168-2.491.501-.782.334-1.463.791-2.043 1.371-.58.58-1.041 1.261-1.383 2.042-.343.783-.514 1.613-.514 2.492v5.692c0 .879.171 1.705.514 2.478.342.773.803 1.45 1.383 2.03.58.579 1.261 1.041 2.043 1.383.782.342 1.612.514 2.491.514.878 0 1.709-.172 2.491-.514.781-.342 1.462-.804 2.042-1.383.58-.58 1.041-1.257 1.384-2.03.342-.773.513-1.599.513-2.478v-2.161c0-.403-.14-.742-.421-1.015-.281-.272-.624-.408-1.028-.408" fill="#FEFEFE"/><path d="M87.635 25.576c.192-.457.377-.887.553-1.291.176-.404.351-.8.527-1.187.176-.385.347-.777.514-1.172.167-.396.346-.804.541-1.226l2.108 4.876h-4.243zm9.726 5.614l-6.274-14.68c-.14-.317-.395-.563-.764-.739-.088-.052-.18-.088-.277-.105l-.276-.027c-.598 0-1.037.291-1.319.871l-6.272 14.68c-.035.071-.062.158-.079.264l-.027.29c0 .334.127.654.382.962.255.307.602.461 1.041.461.282 0 .536-.07.765-.211.228-.141.412-.359.554-.659.263-.65.531-1.286.803-1.91l.83-1.912h6.668l1.635 3.822c.228.58.667.87 1.318.87.439 0 .786-.154 1.041-.461.254-.308.382-.628.382-.962 0-.158-.044-.343-.131-.554z" fill="#FEFEFE"/><mask><use xlink:href="#a"/></mask><path d="M27.001 9c-1.107.007-1.999.896-2 2.004l.006.06-8.937 2.623c-.192-.668-.517-1.31-.983-1.882-.397-.489-.872-.868-1.381-1.176l2.413-4.776c.281.086.573.147.882.147 1.65.007 2.998-1.344 3-2.999.001-1.655-1.344-3.001-3.001-3.001-1.65-.006-2.997 1.343-2.999 2.999-.001.988.484 1.859 1.224 2.407l-2.42 4.789c-1.703-.627-3.677-.383-5.184.848l-.051.051-2.757-2.257c.117-.254.187-.535.188-.835-.002-1.103-.891-2.008-1.999-2.002-1.102-.006-1.993.89-2.001 1.998.002 1.103.891 2.007 1.998 2.002.443.003.849-.145 1.181-.389l2.678 2.193c-1.559 1.906-1.617 4.71.006 6.7.261.32.556.591.87.834l-3.458 4.957c-.388-.184-.817-.294-1.275-.295-1.656-.001-2.999 1.344-3.001 3.003-.001 1.653 1.345 2.996 3.001 2.997 1.655.001 2.998-1.343 2.999-2.996.001-.84-.345-1.597-.899-2.142l3.478-4.987c1.318.666 2.866.741 4.262.217l2.442 3.527c-.178.248-.284.55-.282.88-.005.824.669 1.503 1.499 1.501.83-.002 1.502-.677 1.501-1.501.002-.836-.672-1.502-1.5-1.499-.138-.002-.268.021-.394.054l-2.359-3.408c.195-.121.395-.232.577-.38 1.419-1.16 2.083-2.898 1.931-4.592l9.036-2.652c.35.582.982.977 1.712.978 1.102-.008 1.999-.896 1.997-2.005 0-1.099-.894-1.994-2-1.995" fill="#FEFEFE"/></g></svg>
