<?xml version="1.0" encoding="UTF-8" standalone="no"?>
<!DOCTYPE svg PUBLIC "-//W3C//DTD SVG 1.1//EN" "http://www.w3.org/Graphics/SVG/1.1/DTD/svg11.dtd">
<svg width="800px" height="480px" version="1.1" xmlns="http://www.w3.org/2000/svg" xmlns:xlink="http://www.w3.org/1999/xlink" xml:space="preserve" xmlns:serif="http://www.serif.com/" style="fill-rule:evenodd;clip-rule:evenodd;stroke-linejoin:round;stroke-miterlimit:2;">
    <g transform="matrix(1,0,0,1,-984,0)">
        <g id="dark" transform="matrix(1,0,0,0.8,984.021,0)">
            <rect x="0" y="0" width="800" height="600" style="fill:none;"/>
            <clipPath id="_clip1">
                <rect x="0" y="0" width="800" height="600"/>
            </clipPath>
            <g clip-path="url(#_clip1)">
                <g transform="matrix(1,0,0,1.25,0,9.09495e-13)">
                    <clipPath id="_clip2">
                        <rect x="0" y="-0" width="800" height="480"/>
                    </clipPath>
                    <g clip-path="url(#_clip2)">
                        <g transform="matrix(1.81105,0,0,1,0,0)">
                            <rect x="0" y="0" width="138.81" height="600" style="fill:rgb(7,5,44);"/>
                        </g>
                        <g transform="matrix(1.81105,0,0,0.30498,-1.13687e-13,190.035)">
                            <rect x="0" y="0" width="138.81" height="600" style="fill:rgb(25,21,68);"/>
                        </g>
                        <g transform="matrix(0.77088,0,0,0.290377,-644.149,483.662)">
                            <rect x="835.602" y="-1337.3" width="326.111" height="326.111" style="fill:rgb(0,196,240);"/>
                        </g>
                        <g>
                            <path d="M251.392,110.852L220.365,141.879L251.392,172.906L251.392,353.271L188.167,353.271C182.556,353.271 178.008,357.819 178.008,363.43L178.008,416.496C178.008,422.107 182.556,426.655 188.167,426.655L251.392,426.655L251.392,600L800,600L800,-0L251.392,-0L251.392,110.852Z" style="fill:rgb(39,46,58);"/>
                            <path d="M251.392,110.852L220.365,141.879L251.392,172.906L251.392,353.271L188.167,353.271C182.556,353.271 178.008,357.819 178.008,363.43L178.008,416.496C178.008,422.107 182.556,426.655 188.167,426.655L251.392,426.655L251.392,600L800,600L800,-0L251.392,-0L251.392,110.852Z" style="fill:rgb(39,46,58);"/>
                        </g>
                        <g transform="matrix(4.8965,0,0,4.8965,-290.421,-2191.75)">
                            <g transform="matrix(1,0,0,1,1341.37,-355.199)">
                                <path d="M-1178.23,822.298C-1178.23,819.787 -1179.23,817.378 -1181,815.602C-1182.78,813.826 -1185.19,812.828 -1187.7,812.828C-1192.51,812.828 -1198.34,812.828 -1203.16,812.828C-1205.67,812.828 -1208.08,813.826 -1209.85,815.602C-1211.63,817.378 -1212.63,819.787 -1212.63,822.298C-1212.63,822.299 -1212.63,822.3 -1212.63,822.301C-1212.63,824.813 -1211.63,827.222 -1209.85,828.997C-1208.08,830.773 -1205.67,831.771 -1203.16,831.771C-1198.34,831.771 -1192.51,831.771 -1187.7,831.771C-1185.19,831.771 -1182.78,830.773 -1181,828.997C-1179.23,827.222 -1178.23,824.813 -1178.23,822.301C-1178.23,822.3 -1178.23,822.299 -1178.23,822.298Z" style="fill:rgb(0,196,240);"/>
                            </g>
                            <g transform="matrix(0.500319,0,0,0.90861,751.454,-280.049)">
                                <path d="M-1178.23,822.298C-1178.23,819.786 -1180.04,817.378 -1183.26,815.602C-1186.49,813.826 -1190.86,812.828 -1195.42,812.828L-1195.43,812.828C-1199.99,812.828 -1204.37,813.826 -1207.59,815.602C-1210.82,817.378 -1212.63,819.786 -1212.63,822.298L-1212.63,822.302C-1212.63,824.813 -1210.82,827.222 -1207.59,828.998C-1204.37,830.774 -1199.99,831.771 -1195.43,831.771L-1195.42,831.771C-1190.86,831.771 -1186.49,830.774 -1183.26,828.998C-1180.04,827.222 -1178.23,824.813 -1178.23,822.302L-1178.23,822.298Z" style="fill:rgb(39,46,58);"/>
                            </g>
                        </g>
                        <g transform="matrix(4.8965,0,0,4.8965,-96.0097,-2195.22)">
                            <g transform="matrix(1,0,0,1,1341.37,-355.199)">
                                <path d="M-1178.23,822.298C-1178.23,819.787 -1179.23,817.378 -1181,815.602C-1182.78,813.826 -1185.19,812.828 -1187.7,812.828C-1192.51,812.828 -1198.34,812.828 -1203.16,812.828C-1205.67,812.828 -1208.08,813.826 -1209.85,815.602C-1211.63,817.378 -1212.63,819.787 -1212.63,822.298C-1212.63,822.299 -1212.63,822.3 -1212.63,822.301C-1212.63,824.813 -1211.63,827.222 -1209.85,828.997C-1208.08,830.773 -1205.67,831.771 -1203.16,831.771C-1198.34,831.771 -1192.51,831.771 -1187.7,831.771C-1185.19,831.771 -1182.78,830.773 -1181,828.997C-1179.23,827.222 -1178.23,824.813 -1178.23,822.301C-1178.23,822.3 -1178.23,822.299 -1178.23,822.298Z" style="fill:rgb(62,77,116);"/>
                            </g>
                            <g transform="matrix(0.500319,0,0,0.90861,751.454,-280.049)">
                                <path d="M-1178.23,822.298C-1178.23,819.786 -1180.04,817.378 -1183.26,815.602C-1186.49,813.826 -1190.86,812.828 -1195.42,812.828L-1195.43,812.828C-1199.99,812.828 -1204.37,813.826 -1207.59,815.602C-1210.82,817.378 -1212.63,819.786 -1212.63,822.298L-1212.63,822.302C-1212.63,824.813 -1210.82,827.222 -1207.59,828.998C-1204.37,830.774 -1199.99,831.771 -1195.43,831.771L-1195.42,831.771C-1190.86,831.771 -1186.49,830.774 -1183.26,828.998C-1180.04,827.222 -1178.23,824.813 -1178.23,822.302L-1178.23,822.298Z" style="fill:rgb(39,46,58);"/>
                            </g>
                        </g>
                        <g transform="matrix(1.39597,0,0,1,-120.257,-227.628)">
                            <path d="M690.792,421.434C690.792,409.891 684.089,400.534 675.821,400.534C617.133,400.534 403.105,400.534 344.417,400.534C336.149,400.534 329.446,409.891 329.446,421.434L329.446,502.154C329.446,513.697 336.149,523.054 344.417,523.054L675.821,523.054C684.089,523.054 690.792,513.697 690.792,502.154L690.792,421.434Z" style="fill:rgb(0,196,240);"/>
                        </g>
                        <g transform="matrix(1.39597,0,0,1,-120.257,-71.831)">
                            <path d="M690.792,421.434C690.792,409.891 684.089,400.534 675.821,400.534C617.133,400.534 403.105,400.534 344.417,400.534C336.149,400.534 329.446,409.891 329.446,421.434L329.446,502.154C329.446,513.697 336.149,523.054 344.417,523.054C403.105,523.054 617.133,523.054 675.821,523.054C684.089,523.054 690.792,513.697 690.792,502.154L690.792,421.434ZM687.21,421.434L687.21,502.154C687.21,510.935 682.111,518.054 675.821,518.054C617.133,518.054 403.105,518.054 344.417,518.054C338.127,518.054 333.028,510.935 333.028,502.154L333.028,421.434C333.028,412.653 338.127,405.534 344.417,405.534C344.417,405.534 675.768,405.534 675.821,405.534C682.111,405.534 687.21,412.653 687.21,421.434Z" style="fill:rgb(0,196,240);"/>
                        </g>
                        <g transform="matrix(4.71406,0,0,4.71406,191.129,368.75)">
                            <path d="M8.977,8.086L9.507,7.554C9.727,7.336 9.727,6.98 9.507,6.759L7.248,4.5L9.505,2.238C9.725,2.02 9.725,1.664 9.505,1.444L8.975,0.914C8.757,0.694 8.401,0.694 8.18,0.914L4.993,4.102C4.773,4.322 4.773,4.678 4.995,4.898L8.183,8.086C8.401,8.306 8.757,8.306 8.977,8.086ZM4.475,8.086L5.005,7.556C5.225,7.336 5.225,6.98 5.005,6.762L2.748,4.5L5.007,2.241C5.227,2.02 5.227,1.664 5.007,1.446L4.477,0.914C4.257,0.694 3.901,0.694 3.683,0.914L0.495,4.102C0.273,4.322 0.273,4.678 0.493,4.898L3.68,8.086C3.901,8.306 4.257,8.306 4.475,8.086Z" style="fill:rgb(0,196,240);fill-rule:nonzero;"/>
                        </g>
                    </g>
                </g>
            </g>
        </g>
    </g>
</svg>
