<?xml version="1.0" encoding="UTF-8" standalone="no"?><!DOCTYPE svg PUBLIC "-//W3C//DTD SVG 1.1//EN" "http://www.w3.org/Graphics/SVG/1.1/DTD/svg11.dtd">
<svg width="100%" height="100%" viewBox="0 0 16 16" version="1.1" xmlns="http://www.w3.org/2000/svg" xmlns:xlink="http://www.w3.org/1999/xlink" xml:space="preserve" style="fill-rule:evenodd;clip-rule:evenodd;stroke-linejoin:round;stroke-miterlimit:1.41421;">
	<path d="M8.37,2.58c-0.126,-0.074 -0.241,-0.171 -0.339,-0.29c-0.436,-0.535 -0.356,-1.323 0.179,-1.759c0.535,-0.436 1.323,-0.355 1.759,0.179c0.436,0.535 0.356,1.323 -0.179,1.759c-0.276,0.225 -0.619,0.312 -0.947,0.271l-1.112,2.75c0.369,0.169 0.705,0.423 0.979,0.758c0.236,0.29 0.403,0.614 0.502,0.952l3.299,-1.008c-0.003,-0.022 -0.005,-0.044 -0.007,-0.067c-0.062,-0.825 0.557,-1.545 1.384,-1.608c0.825,-0.062 1.545,0.557 1.608,1.384c0.062,0.826 -0.558,1.546 -1.384,1.608c-0.63,0.047 -1.199,-0.302 -1.46,-0.838l-3.343,1.022c0.091,0.885 -0.251,1.797 -0.991,2.402c-0.031,0.024 -0.062,0.049 -0.093,0.072l0.629,1.051c0.292,-0.211 0.662,-0.317 1.048,-0.273c0.823,0.095 1.412,0.841 1.317,1.662c-0.097,0.823 -0.839,1.412 -1.662,1.319c-0.823,-0.096 -1.413,-0.84 -1.317,-1.663c0.029,-0.251 0.118,-0.481 0.252,-0.676l-0.694,-1.159c-0.806,0.397 -1.753,0.367 -2.526,-0.058l-1.839,2.234c0.316,0.324 0.525,0.758 0.561,1.246c0.083,1.101 -0.742,2.062 -1.844,2.144c-1.102,0.083 -2.062,-0.743 -2.144,-1.845c-0.083,-1.101 0.742,-2.061 1.845,-2.143c0.434,-0.033 0.847,0.075 1.192,0.287l1.814,-2.204c-0.138,-0.114 -0.268,-0.243 -0.385,-0.388c-0.805,-0.986 -0.806,-2.364 -0.086,-3.344l-1.849,-1.514c-0.031,0.02 -0.064,0.038 -0.098,0.055c-0.496,0.243 -1.094,0.037 -1.337,-0.459c-0.243,-0.495 -0.037,-1.094 0.459,-1.337c0.496,-0.243 1.094,-0.037 1.337,0.458c0.147,0.302 0.129,0.642 -0.019,0.917l1.839,1.506c0.046,-0.044 0.095,-0.086 0.145,-0.127c0.696,-0.567 1.587,-0.735 2.397,-0.531l1.11,-2.745Z" />
</svg>
